<svg width="51" height="13" viewBox="0 0 51 13" fill="none" xmlns="http://www.w3.org/2000/svg">
<g opacity="0.2">
<path d="M0 7.09773C0 6.40082 0.128114 5.71464 0.384342 5.03918C0.651246 4.36371 1.03559 3.75794 1.53737 3.22185C2.03915 2.68577 2.64769 2.25155 3.36299 1.91918C4.07829 1.5868 4.89502 1.42062 5.81317 1.42062C6.91281 1.42062 7.86299 1.65113 8.6637 2.11217C9.47509 2.56247 10.0783 3.16289 10.4733 3.9134L8.08719 5.61814C7.98043 5.33938 7.8363 5.10887 7.6548 4.9266C7.48399 4.74433 7.29182 4.59959 7.07829 4.49237C6.86477 4.38515 6.64057 4.3101 6.40569 4.26722C6.1815 4.22433 5.96263 4.20289 5.74911 4.20289C5.30071 4.20289 4.91103 4.29402 4.58007 4.47629C4.25979 4.64783 3.99288 4.87835 3.77936 5.16783C3.57651 5.4466 3.42171 5.76825 3.31495 6.13278C3.21886 6.4866 3.17082 6.84041 3.17082 7.19423C3.17082 7.59093 3.22954 7.97155 3.34698 8.33608C3.46441 8.70062 3.63523 9.02227 3.85943 9.30103C4.08363 9.57979 4.35587 9.80495 4.67616 9.97649C5.00712 10.1373 5.37545 10.2177 5.78114 10.2177C5.99466 10.2177 6.21352 10.1963 6.43772 10.1534C6.66192 10.0998 6.87545 10.0194 7.07829 9.91216C7.29182 9.79423 7.47865 9.64948 7.63879 9.47794C7.80961 9.29567 7.94306 9.07588 8.03915 8.81856L10.5854 10.3464C10.4146 10.7645 10.153 11.1398 9.80071 11.4722C9.45908 11.8045 9.06406 12.0833 8.61566 12.3085C8.17794 12.5336 7.70285 12.7052 7.19039 12.8231C6.68861 12.941 6.19751 13 5.71708 13C4.87367 13 4.09964 12.8338 3.39502 12.5014C2.70107 12.1583 2.09787 11.708 1.58541 11.1505C1.08363 10.593 0.69395 9.96041 0.41637 9.25278C0.13879 8.54515 0 7.8268 0 7.09773Z" fill="#0F2F54"/>
<path d="M13.9698 12.9035V1.48495H19.1904C19.7456 1.48495 20.258 1.60289 20.7278 1.83876C21.1975 2.06392 21.5979 2.36412 21.9288 2.73938C22.2705 3.10392 22.5374 3.52742 22.7295 4.0099C22.9217 4.48165 23.0178 4.95876 23.0178 5.44124C23.0178 6.10598 22.8737 6.72783 22.5854 7.3068C22.2972 7.87505 21.8968 8.34144 21.3843 8.70598L23.7865 12.9035H20.2633L18.2616 9.39753H17.0925V12.9035H13.9698ZM17.0925 6.6635H19.0623C19.2544 6.6635 19.4306 6.55629 19.5907 6.34186C19.7616 6.12742 19.847 5.82722 19.847 5.44124C19.847 5.04454 19.7509 4.74433 19.5587 4.54062C19.3665 4.32619 19.1744 4.21897 18.9822 4.21897H17.0925V6.6635Z" fill="#0F2F54"/>
<path d="M34.4413 11.5633L33.8327 10.92C33.3737 11.1988 32.8932 11.4025 32.3915 11.5311C31.9004 11.6598 31.4039 11.7241 30.9021 11.7241C30.2402 11.7241 29.6584 11.6169 29.1566 11.4025C28.6655 11.188 28.2491 10.9093 27.9075 10.5662C27.5765 10.2231 27.3256 9.83711 27.1548 9.40825C26.984 8.96866 26.8986 8.52907 26.8986 8.08948C26.8986 7.43546 27.0534 6.87258 27.363 6.40082C27.6833 5.91835 28.0623 5.50021 28.5 5.14639C28.1584 4.72825 27.9181 4.35835 27.7794 4.0367C27.6406 3.70433 27.5712 3.33979 27.5712 2.94309C27.5712 2.48206 27.6566 2.06928 27.8274 1.70474C27.9982 1.32948 28.2278 1.01856 28.516 0.771959C28.8149 0.525361 29.1673 0.337732 29.573 0.209072C29.9786 0.0696908 30.4217 0 30.9021 0C31.3185 0 31.7242 0.0536082 32.1192 0.160825C32.5249 0.257319 32.8826 0.418144 33.1922 0.643299C33.5125 0.857732 33.7687 1.14186 33.9609 1.49567C34.153 1.83876 34.2491 2.25691 34.2491 2.7501C34.2491 3.32907 34.1157 3.84907 33.8488 4.3101C33.5819 4.77113 33.2242 5.19464 32.7758 5.58062L34.089 6.97979C34.2064 6.67959 34.2972 6.35794 34.3612 6.01484C34.4253 5.66103 34.4573 5.28041 34.4573 4.87299H36.9075C36.8968 5.69856 36.8007 6.44371 36.6192 7.10845C36.4377 7.76247 36.1922 8.35217 35.8826 8.87753L38.4288 11.5633H34.4413ZM31.2224 9.34392C31.5427 9.34392 31.8577 9.27423 32.1673 9.13484L30.3577 7.18887C29.9947 7.48907 29.8132 7.78928 29.8132 8.08948C29.8132 8.20742 29.8345 8.34144 29.8772 8.49155C29.9306 8.63093 30.0107 8.76495 30.1174 8.89361C30.2349 9.02227 30.3843 9.12948 30.5658 9.21526C30.7473 9.30103 30.9662 9.34392 31.2224 9.34392ZM30.3256 2.81443C30.3256 2.95381 30.363 3.07711 30.4377 3.18433C30.5231 3.28082 30.6619 3.42021 30.8541 3.60247C31.0676 3.45237 31.2224 3.32371 31.3185 3.21649C31.4146 3.09856 31.4626 2.95381 31.4626 2.78227C31.4626 2.6 31.4093 2.46062 31.3025 2.36412C31.2064 2.26763 31.073 2.21938 30.9021 2.21938C30.7206 2.21938 30.5765 2.27835 30.4698 2.39629C30.3737 2.50351 30.3256 2.64289 30.3256 2.81443Z" fill="#0F2F54"/>
<path d="M51 9.97649C51 10.4911 50.8932 10.9361 50.6797 11.3113C50.4662 11.6759 50.1726 11.9761 49.7989 12.212C49.4253 12.4478 48.9875 12.6247 48.4858 12.7427C47.9947 12.8499 47.4715 12.9035 46.9164 12.9035H41.3274V1.48495H47.9253C48.3203 1.48495 48.6779 1.57072 48.9982 1.74227C49.3185 1.91381 49.5907 2.13897 49.8149 2.41773C50.0391 2.68577 50.21 2.9967 50.3274 3.35052C50.4555 3.69361 50.5196 4.04742 50.5196 4.41196C50.5196 4.94804 50.3808 5.46268 50.1032 5.95588C49.8363 6.43835 49.4306 6.80289 48.8861 7.04948C49.5374 7.24247 50.0498 7.58021 50.4235 8.06268C50.8078 8.53443 51 9.17237 51 9.97649ZM47.8292 9.33319C47.8292 9.05443 47.7545 8.82392 47.605 8.64165C47.4555 8.44866 47.2633 8.35216 47.0285 8.35216H44.4502V10.266H46.9164C47.1726 10.266 47.3861 10.1856 47.5569 10.0247C47.7384 9.86392 47.8292 9.6334 47.8292 9.33319ZM44.4502 4.15464V5.90763H46.5801C46.7936 5.90763 46.9858 5.84866 47.1566 5.73072C47.3381 5.61278 47.4288 5.37691 47.4288 5.02309C47.4288 4.71216 47.3541 4.49237 47.2046 4.36371C47.0552 4.22433 46.879 4.15464 46.6762 4.15464H44.4502Z" fill="#0F2F54"/>
</g>
</svg>
